<svg xmlns="http://www.w3.org/2000/svg" xmlns:xlink="http://www.w3.org/1999/xlink" version="1.1" width="256" height="256" viewBox="0 0 256 256" xml:space="preserve">
<desc>Created with Fabric.js 1.7.22</desc>
<defs>
</defs>
<g transform="translate(128 128) scale(1.21 1.21)" style="">
	<g style="stroke: none; stroke-width: 0; stroke-dasharray: none; stroke-linecap: butt; stroke-linejoin: miter; stroke-miterlimit: 10; fill: none; fill-rule: nonzero; opacity: 1;" transform="translate(-104.85 -104.85000000000001) scale(2.33 2.33)" >
	<path d="M 33.261 81 c -0.02 0 -0.039 0 -0.059 0 c -2.6 -0.018 -5.065 -1.157 -6.761 -3.127 L 2.18 49.699 c -3.244 -3.767 -2.819 -9.45 0.947 -12.693 c 3.766 -3.243 9.449 -2.819 12.692 0.947 l 17.53 20.357 l 40.907 -46.271 c 3.293 -3.725 8.98 -4.074 12.704 -0.782 s 4.074 8.98 0.782 12.704 l -47.74 54 C 38.295 79.894 35.839 81 33.261 81 z" style="stroke: none; stroke-width: 1; stroke-dasharray: none; stroke-linecap: butt; stroke-linejoin: miter; stroke-miterlimit: 10; fill: #0ac074; fill-rule: nonzero; opacity: 1;" transform=" matrix(1 0 0 1 0 0) " stroke-linecap="round" />
</g>
</g>
</svg>